<mxfile host="app.diagrams.net" agent="Mozilla/5.0 (Windows NT 10.0; Win64; x64) AppleWebKit/537.36 (KHTML, like Gecko) Chrome/129.0.0.0 Safari/537.36" version="24.7.17">
  <diagram id="R2lEEEUBdFMjLlhIrx00" name="Page-1">
    <mxGraphModel dx="9585" dy="1950" grid="1" gridSize="10" guides="0" tooltips="1" connect="1" arrows="1" fold="1" page="1" pageScale="1" pageWidth="6000" pageHeight="1000" math="0" shadow="0" extFonts="Permanent Marker^https://fonts.googleapis.com/css?family=Permanent+Marker">
      <root>
        <object label="" id="0">
          <mxCell />
        </object>
        <mxCell id="1" parent="0" />
        <mxCell id="OcTYDdU6IvkN5eMSKaNO-81" value="" style="rounded=0;whiteSpace=wrap;html=1;" parent="1" vertex="1">
          <mxGeometry x="610" y="600" width="30" height="70" as="geometry" />
        </mxCell>
        <mxCell id="iutqLcoYuN1xurHz5qFX-5" value="név" style="ellipse;whiteSpace=wrap;html=1;fillColor=#f5f5f5;gradientColor=#b3b3b3;strokeColor=#666666;" parent="1" vertex="1">
          <mxGeometry x="20" y="520" width="130" height="50" as="geometry" />
        </mxCell>
        <mxCell id="iutqLcoYuN1xurHz5qFX-6" value="csillag" style="ellipse;whiteSpace=wrap;html=1;fillColor=#f5f5f5;gradientColor=#b3b3b3;strokeColor=#666666;" parent="1" vertex="1">
          <mxGeometry x="560" y="520" width="130" height="50" as="geometry" />
        </mxCell>
        <mxCell id="iutqLcoYuN1xurHz5qFX-8" value="" style="rounded=0;whiteSpace=wrap;html=1;" parent="1" vertex="1">
          <mxGeometry x="70" y="590" width="30" height="70" as="geometry" />
        </mxCell>
        <mxCell id="iutqLcoYuN1xurHz5qFX-10" value="W0E0RY_vendeglatas" style="ellipse;whiteSpace=wrap;html=1;fillColor=#f5f5f5;gradientColor=#b3b3b3;strokeColor=#666666;" parent="1" vertex="1">
          <mxGeometry x="2270" y="90" width="130" height="50" as="geometry" />
        </mxCell>
        <mxCell id="iutqLcoYuN1xurHz5qFX-11" value="Rendelés" style="ellipse;shape=doubleEllipse;margin=3;whiteSpace=wrap;html=1;align=center;fillColor=#f5f5f5;gradientColor=#b3b3b3;strokeColor=#666666;" parent="1" vertex="1">
          <mxGeometry x="3300" y="360" width="130" height="50" as="geometry" />
        </mxCell>
        <mxCell id="iutqLcoYuN1xurHz5qFX-12" value="Gyakornok" style="ellipse;shape=doubleEllipse;margin=3;whiteSpace=wrap;html=1;align=center;fillColor=#f5f5f5;gradientColor=#b3b3b3;strokeColor=#666666;" parent="1" vertex="1">
          <mxGeometry x="2600" y="360" width="130" height="50" as="geometry" />
        </mxCell>
        <mxCell id="iutqLcoYuN1xurHz5qFX-13" value="Étterem" style="ellipse;shape=doubleEllipse;margin=3;whiteSpace=wrap;html=1;align=center;fillColor=#f5f5f5;strokeColor=#666666;gradientColor=#b3b3b3;" parent="1" vertex="1">
          <mxGeometry x="320" y="360" width="130" height="50" as="geometry" />
        </mxCell>
        <mxCell id="iutqLcoYuN1xurHz5qFX-15" value="Vendég" style="ellipse;shape=doubleEllipse;margin=3;whiteSpace=wrap;html=1;align=center;fillColor=#f5f5f5;gradientColor=#b3b3b3;strokeColor=#666666;" parent="1" vertex="1">
          <mxGeometry x="3980" y="370" width="130" height="50" as="geometry" />
        </mxCell>
        <mxCell id="iutqLcoYuN1xurHz5qFX-16" value="Főszakács" style="ellipse;shape=doubleEllipse;margin=3;whiteSpace=wrap;html=1;align=center;fillColor=#f5f5f5;gradientColor=#b3b3b3;strokeColor=#666666;" parent="1" vertex="1">
          <mxGeometry x="1040" y="360" width="130" height="50" as="geometry" />
        </mxCell>
        <mxCell id="iutqLcoYuN1xurHz5qFX-17" value="Szakács" style="ellipse;shape=doubleEllipse;margin=3;whiteSpace=wrap;html=1;align=center;fillColor=#f5f5f5;gradientColor=#b3b3b3;strokeColor=#666666;" parent="1" vertex="1">
          <mxGeometry x="1900" y="360" width="130" height="50" as="geometry" />
        </mxCell>
        <mxCell id="5B_4mtcaILTxM5lqjwQF-2" value="név" style="ellipse;whiteSpace=wrap;html=1;fillColor=#f5f5f5;gradientColor=#b3b3b3;strokeColor=#666666;" parent="1" vertex="1">
          <mxGeometry x="820" y="520" width="130" height="50" as="geometry" />
        </mxCell>
        <mxCell id="5B_4mtcaILTxM5lqjwQF-5" value="név" style="ellipse;whiteSpace=wrap;html=1;fillColor=#f5f5f5;gradientColor=#b3b3b3;strokeColor=#666666;" parent="1" vertex="1">
          <mxGeometry x="1750" y="520" width="130" height="50" as="geometry" />
        </mxCell>
        <mxCell id="5B_4mtcaILTxM5lqjwQF-7" value="részleg" style="ellipse;whiteSpace=wrap;html=1;fillColor=#f5f5f5;gradientColor=#b3b3b3;strokeColor=#666666;" parent="1" vertex="1">
          <mxGeometry x="1900" y="520" width="130" height="50" as="geometry" />
        </mxCell>
        <mxCell id="5B_4mtcaILTxM5lqjwQF-10" value="Életkor" style="ellipse;whiteSpace=wrap;html=1;fillColor=#f5f5f5;gradientColor=#b3b3b3;strokeColor=#666666;" parent="1" vertex="1">
          <mxGeometry x="960" y="520" width="130" height="50" as="geometry" />
        </mxCell>
        <mxCell id="5B_4mtcaILTxM5lqjwQF-15" value="összeg" style="ellipse;whiteSpace=wrap;html=1;fillColor=#f5f5f5;gradientColor=#b3b3b3;strokeColor=#666666;" parent="1" vertex="1">
          <mxGeometry x="3230" y="510" width="130" height="50" as="geometry" />
        </mxCell>
        <mxCell id="5B_4mtcaILTxM5lqjwQF-17" value="név" style="ellipse;whiteSpace=wrap;html=1;fillColor=#f5f5f5;gradientColor=#b3b3b3;strokeColor=#666666;" parent="1" vertex="1">
          <mxGeometry x="2450" y="520" width="130" height="50" as="geometry" />
        </mxCell>
        <mxCell id="5B_4mtcaILTxM5lqjwQF-20" value="Név" style="ellipse;whiteSpace=wrap;html=1;fillColor=#f5f5f5;gradientColor=#b3b3b3;strokeColor=#666666;" parent="1" vertex="1">
          <mxGeometry x="3840" y="520" width="130" height="50" as="geometry" />
        </mxCell>
        <mxCell id="5B_4mtcaILTxM5lqjwQF-22" value="Étel" style="ellipse;whiteSpace=wrap;html=1;fillColor=#f5f5f5;gradientColor=#b3b3b3;strokeColor=#666666;" parent="1" vertex="1">
          <mxGeometry x="3380" y="510" width="130" height="50" as="geometry" />
        </mxCell>
        <mxCell id="5B_4mtcaILTxM5lqjwQF-28" value="&lt;u&gt;Ekod&lt;/u&gt;" style="rhombus;whiteSpace=wrap;html=1;fillColor=#f5f5f5;gradientColor=#b3b3b3;strokeColor=#666666;" parent="1" vertex="1">
          <mxGeometry x="-130" y="510" width="80" height="80" as="geometry" />
        </mxCell>
        <mxCell id="5B_4mtcaILTxM5lqjwQF-32" value="&lt;u&gt;FKod&lt;/u&gt;" style="rhombus;whiteSpace=wrap;html=1;fillColor=#f5f5f5;strokeColor=#666666;gradientColor=#b3b3b3;" parent="1" vertex="1">
          <mxGeometry x="730" y="470" width="80" height="80" as="geometry" />
        </mxCell>
        <mxCell id="5B_4mtcaILTxM5lqjwQF-38" value="&lt;u&gt;SzKod&lt;/u&gt;" style="rhombus;whiteSpace=wrap;html=1;fillColor=#f5f5f5;gradientColor=#b3b3b3;strokeColor=#666666;" parent="1" vertex="1">
          <mxGeometry x="1640" y="500" width="80" height="80" as="geometry" />
        </mxCell>
        <mxCell id="5B_4mtcaILTxM5lqjwQF-39" value="&lt;u&gt;GyKod&lt;/u&gt;" style="rhombus;whiteSpace=wrap;html=1;fillColor=#f5f5f5;gradientColor=#b3b3b3;strokeColor=#666666;" parent="1" vertex="1">
          <mxGeometry x="2350" y="500" width="80" height="80" as="geometry" />
        </mxCell>
        <mxCell id="5B_4mtcaILTxM5lqjwQF-44" value="&lt;u&gt;VKod&lt;/u&gt;" style="rhombus;whiteSpace=wrap;html=1;fillColor=#f5f5f5;gradientColor=#b3b3b3;strokeColor=#666666;" parent="1" vertex="1">
          <mxGeometry x="3740" y="490" width="80" height="80" as="geometry" />
        </mxCell>
        <mxCell id="5B_4mtcaILTxM5lqjwQF-53" value="" style="rounded=0;whiteSpace=wrap;html=1;" parent="1" vertex="1">
          <mxGeometry x="1150" y="600" width="30" height="70" as="geometry" />
        </mxCell>
        <mxCell id="5B_4mtcaILTxM5lqjwQF-54" value="" style="rounded=0;whiteSpace=wrap;html=1;" parent="1" vertex="1">
          <mxGeometry x="1010" y="600" width="30" height="70" as="geometry" />
        </mxCell>
        <mxCell id="5B_4mtcaILTxM5lqjwQF-55" value="" style="rounded=0;whiteSpace=wrap;html=1;" parent="1" vertex="1">
          <mxGeometry x="870" y="600" width="30" height="70" as="geometry" />
        </mxCell>
        <mxCell id="5B_4mtcaILTxM5lqjwQF-57" value="" style="rounded=0;whiteSpace=wrap;html=1;" parent="1" vertex="1">
          <mxGeometry x="1950" y="600" width="30" height="70" as="geometry" />
        </mxCell>
        <mxCell id="5B_4mtcaILTxM5lqjwQF-58" value="" style="rounded=0;whiteSpace=wrap;html=1;" parent="1" vertex="1">
          <mxGeometry x="1800" y="600" width="30" height="70" as="geometry" />
        </mxCell>
        <mxCell id="5B_4mtcaILTxM5lqjwQF-59" value="" style="rounded=0;whiteSpace=wrap;html=1;" parent="1" vertex="1">
          <mxGeometry x="3430" y="590" width="30" height="70" as="geometry" />
        </mxCell>
        <mxCell id="5B_4mtcaILTxM5lqjwQF-61" value="" style="rounded=0;whiteSpace=wrap;html=1;" parent="1" vertex="1">
          <mxGeometry x="3280" y="590" width="30" height="70" as="geometry" />
        </mxCell>
        <mxCell id="5B_4mtcaILTxM5lqjwQF-70" value="" style="rounded=0;whiteSpace=wrap;html=1;" parent="1" vertex="1">
          <mxGeometry x="2780" y="600" width="30" height="70" as="geometry" />
        </mxCell>
        <mxCell id="5B_4mtcaILTxM5lqjwQF-72" value="" style="rounded=0;whiteSpace=wrap;html=1;" parent="1" vertex="1">
          <mxGeometry x="2500" y="600" width="30" height="70" as="geometry" />
        </mxCell>
        <mxCell id="5B_4mtcaILTxM5lqjwQF-73" value="" style="endArrow=none;html=1;rounded=0;exitX=0.5;exitY=0;exitDx=0;exitDy=0;entryX=0;entryY=0.5;entryDx=0;entryDy=0;" parent="1" source="5B_4mtcaILTxM5lqjwQF-28" target="iutqLcoYuN1xurHz5qFX-13" edge="1">
          <mxGeometry relative="1" as="geometry">
            <mxPoint x="190" y="500" as="sourcePoint" />
            <mxPoint x="350" y="500" as="targetPoint" />
          </mxGeometry>
        </mxCell>
        <mxCell id="5B_4mtcaILTxM5lqjwQF-74" value="" style="endArrow=none;html=1;rounded=0;exitX=0.5;exitY=0;exitDx=0;exitDy=0;entryX=0;entryY=1;entryDx=0;entryDy=0;" parent="1" source="iutqLcoYuN1xurHz5qFX-5" target="iutqLcoYuN1xurHz5qFX-13" edge="1">
          <mxGeometry relative="1" as="geometry">
            <mxPoint x="300" y="670" as="sourcePoint" />
            <mxPoint x="460" y="670" as="targetPoint" />
          </mxGeometry>
        </mxCell>
        <mxCell id="5B_4mtcaILTxM5lqjwQF-75" value="" style="endArrow=none;html=1;rounded=0;exitX=0.5;exitY=0;exitDx=0;exitDy=0;entryX=0.5;entryY=1;entryDx=0;entryDy=0;" parent="1" source="5B_4mtcaILTxM5lqjwQF-55" target="5B_4mtcaILTxM5lqjwQF-2" edge="1">
          <mxGeometry relative="1" as="geometry">
            <mxPoint x="810" y="720" as="sourcePoint" />
            <mxPoint x="970" y="720" as="targetPoint" />
          </mxGeometry>
        </mxCell>
        <mxCell id="5B_4mtcaILTxM5lqjwQF-76" value="" style="endArrow=none;html=1;rounded=0;exitX=0.5;exitY=0;exitDx=0;exitDy=0;entryX=0.5;entryY=1;entryDx=0;entryDy=0;" parent="1" source="5B_4mtcaILTxM5lqjwQF-58" target="5B_4mtcaILTxM5lqjwQF-5" edge="1">
          <mxGeometry relative="1" as="geometry">
            <mxPoint x="2050" y="910" as="sourcePoint" />
            <mxPoint x="2210" y="910" as="targetPoint" />
          </mxGeometry>
        </mxCell>
        <mxCell id="5B_4mtcaILTxM5lqjwQF-77" value="" style="endArrow=none;html=1;rounded=0;exitX=0.5;exitY=0;exitDx=0;exitDy=0;entryX=0.5;entryY=1;entryDx=0;entryDy=0;" parent="1" source="5B_4mtcaILTxM5lqjwQF-54" target="5B_4mtcaILTxM5lqjwQF-10" edge="1">
          <mxGeometry relative="1" as="geometry">
            <mxPoint x="1060" y="840" as="sourcePoint" />
            <mxPoint x="1220" y="840" as="targetPoint" />
          </mxGeometry>
        </mxCell>
        <mxCell id="5B_4mtcaILTxM5lqjwQF-78" value="" style="endArrow=none;html=1;rounded=0;exitX=0.5;exitY=0;exitDx=0;exitDy=0;" parent="1" source="5B_4mtcaILTxM5lqjwQF-53" target="4luKBot8r3mopgkSVabK-18" edge="1">
          <mxGeometry relative="1" as="geometry">
            <mxPoint x="1130" y="610" as="sourcePoint" />
            <mxPoint x="1165" y="570" as="targetPoint" />
          </mxGeometry>
        </mxCell>
        <mxCell id="5B_4mtcaILTxM5lqjwQF-80" value="" style="endArrow=none;html=1;rounded=0;exitX=0.5;exitY=0;exitDx=0;exitDy=0;entryX=0.5;entryY=1;entryDx=0;entryDy=0;" parent="1" source="5B_4mtcaILTxM5lqjwQF-57" target="5B_4mtcaILTxM5lqjwQF-7" edge="1">
          <mxGeometry relative="1" as="geometry">
            <mxPoint x="2050" y="930" as="sourcePoint" />
            <mxPoint x="2210" y="930" as="targetPoint" />
          </mxGeometry>
        </mxCell>
        <mxCell id="5B_4mtcaILTxM5lqjwQF-83" value="" style="endArrow=none;html=1;rounded=0;exitX=0.5;exitY=0;exitDx=0;exitDy=0;entryX=1;entryY=0.5;entryDx=0;entryDy=0;" parent="1" source="iutqLcoYuN1xurHz5qFX-6" target="iutqLcoYuN1xurHz5qFX-13" edge="1">
          <mxGeometry relative="1" as="geometry">
            <mxPoint x="320" y="680" as="sourcePoint" />
            <mxPoint x="480" y="680" as="targetPoint" />
          </mxGeometry>
        </mxCell>
        <mxCell id="5B_4mtcaILTxM5lqjwQF-85" value="" style="endArrow=none;html=1;rounded=0;exitX=0.698;exitY=0.993;exitDx=0;exitDy=0;exitPerimeter=0;" parent="1" source="iutqLcoYuN1xurHz5qFX-16" target="4luKBot8r3mopgkSVabK-18" edge="1">
          <mxGeometry relative="1" as="geometry">
            <mxPoint x="1130" y="490" as="sourcePoint" />
            <mxPoint x="1165" y="520" as="targetPoint" />
          </mxGeometry>
        </mxCell>
        <mxCell id="5B_4mtcaILTxM5lqjwQF-86" value="" style="endArrow=none;html=1;rounded=0;exitX=0.5;exitY=0;exitDx=0;exitDy=0;entryX=0;entryY=0.5;entryDx=0;entryDy=0;" parent="1" source="5B_4mtcaILTxM5lqjwQF-32" target="iutqLcoYuN1xurHz5qFX-16" edge="1">
          <mxGeometry relative="1" as="geometry">
            <mxPoint x="800" y="480" as="sourcePoint" />
            <mxPoint x="960" y="480" as="targetPoint" />
          </mxGeometry>
        </mxCell>
        <mxCell id="5B_4mtcaILTxM5lqjwQF-87" value="" style="endArrow=none;html=1;rounded=0;exitX=0.5;exitY=0;exitDx=0;exitDy=0;entryX=0;entryY=1;entryDx=0;entryDy=0;" parent="1" source="5B_4mtcaILTxM5lqjwQF-2" target="iutqLcoYuN1xurHz5qFX-16" edge="1">
          <mxGeometry relative="1" as="geometry">
            <mxPoint x="940" y="500" as="sourcePoint" />
            <mxPoint x="1100" y="500" as="targetPoint" />
          </mxGeometry>
        </mxCell>
        <mxCell id="5B_4mtcaILTxM5lqjwQF-88" value="" style="endArrow=none;html=1;rounded=0;exitX=0.5;exitY=1;exitDx=0;exitDy=0;entryX=0.5;entryY=0;entryDx=0;entryDy=0;" parent="1" source="iutqLcoYuN1xurHz5qFX-16" target="5B_4mtcaILTxM5lqjwQF-10" edge="1">
          <mxGeometry relative="1" as="geometry">
            <mxPoint x="1020" y="490" as="sourcePoint" />
            <mxPoint x="1180" y="490" as="targetPoint" />
          </mxGeometry>
        </mxCell>
        <mxCell id="5B_4mtcaILTxM5lqjwQF-92" value="" style="endArrow=none;html=1;rounded=0;exitX=0.5;exitY=0;exitDx=0;exitDy=0;entryX=0.5;entryY=1;entryDx=0;entryDy=0;" parent="1" source="iutqLcoYuN1xurHz5qFX-8" target="iutqLcoYuN1xurHz5qFX-5" edge="1">
          <mxGeometry relative="1" as="geometry">
            <mxPoint x="280" y="780" as="sourcePoint" />
            <mxPoint x="440" y="780" as="targetPoint" />
          </mxGeometry>
        </mxCell>
        <mxCell id="5B_4mtcaILTxM5lqjwQF-94" value="" style="endArrow=none;html=1;rounded=0;exitX=0.5;exitY=0;exitDx=0;exitDy=0;entryX=0.5;entryY=1;entryDx=0;entryDy=0;" parent="1" source="5B_4mtcaILTxM5lqjwQF-7" target="iutqLcoYuN1xurHz5qFX-17" edge="1">
          <mxGeometry relative="1" as="geometry">
            <mxPoint x="1960" y="450" as="sourcePoint" />
            <mxPoint x="2120" y="450" as="targetPoint" />
          </mxGeometry>
        </mxCell>
        <mxCell id="5B_4mtcaILTxM5lqjwQF-95" value="" style="endArrow=none;html=1;rounded=0;exitX=0.5;exitY=0;exitDx=0;exitDy=0;entryX=0.5;entryY=1;entryDx=0;entryDy=0;" parent="1" source="OcTYDdU6IvkN5eMSKaNO-81" target="iutqLcoYuN1xurHz5qFX-6" edge="1">
          <mxGeometry relative="1" as="geometry">
            <mxPoint x="520" y="710" as="sourcePoint" />
            <mxPoint x="680" y="710" as="targetPoint" />
          </mxGeometry>
        </mxCell>
        <mxCell id="5B_4mtcaILTxM5lqjwQF-96" value="" style="endArrow=none;html=1;rounded=0;exitX=0.5;exitY=0;exitDx=0;exitDy=0;entryX=0;entryY=0.5;entryDx=0;entryDy=0;" parent="1" source="5B_4mtcaILTxM5lqjwQF-38" target="iutqLcoYuN1xurHz5qFX-17" edge="1">
          <mxGeometry relative="1" as="geometry">
            <mxPoint x="1720" y="430" as="sourcePoint" />
            <mxPoint x="1880" y="430" as="targetPoint" />
          </mxGeometry>
        </mxCell>
        <mxCell id="5B_4mtcaILTxM5lqjwQF-97" value="" style="endArrow=none;html=1;rounded=0;exitX=0.5;exitY=0;exitDx=0;exitDy=0;entryX=0;entryY=1;entryDx=0;entryDy=0;" parent="1" source="5B_4mtcaILTxM5lqjwQF-5" target="iutqLcoYuN1xurHz5qFX-17" edge="1">
          <mxGeometry relative="1" as="geometry">
            <mxPoint x="1820" y="470" as="sourcePoint" />
            <mxPoint x="1980" y="470" as="targetPoint" />
          </mxGeometry>
        </mxCell>
        <mxCell id="5B_4mtcaILTxM5lqjwQF-99" value="" style="endArrow=none;html=1;rounded=0;exitX=0.667;exitY=0.957;exitDx=0;exitDy=0;exitPerimeter=0;entryX=0.5;entryY=0;entryDx=0;entryDy=0;" parent="1" source="iutqLcoYuN1xurHz5qFX-17" edge="1">
          <mxGeometry relative="1" as="geometry">
            <mxPoint x="2030" y="440" as="sourcePoint" />
            <mxPoint x="2105" y="520" as="targetPoint" />
          </mxGeometry>
        </mxCell>
        <mxCell id="5B_4mtcaILTxM5lqjwQF-100" value="" style="endArrow=none;html=1;rounded=0;exitX=0.5;exitY=0;exitDx=0;exitDy=0;entryX=0.5;entryY=1;entryDx=0;entryDy=0;" parent="1" source="5B_4mtcaILTxM5lqjwQF-72" target="5B_4mtcaILTxM5lqjwQF-17" edge="1">
          <mxGeometry relative="1" as="geometry">
            <mxPoint x="2410" y="700" as="sourcePoint" />
            <mxPoint x="2570" y="700" as="targetPoint" />
          </mxGeometry>
        </mxCell>
        <mxCell id="5B_4mtcaILTxM5lqjwQF-126" value="" style="endArrow=none;html=1;rounded=0;exitX=0.5;exitY=0;exitDx=0;exitDy=0;entryX=0.5;entryY=1;entryDx=0;entryDy=0;" parent="1" target="iutqLcoYuN1xurHz5qFX-12" edge="1">
          <mxGeometry relative="1" as="geometry">
            <mxPoint x="2654.999999999998" y="520" as="sourcePoint" />
            <mxPoint x="2740" y="500" as="targetPoint" />
          </mxGeometry>
        </mxCell>
        <mxCell id="5B_4mtcaILTxM5lqjwQF-127" value="" style="endArrow=none;html=1;rounded=0;exitX=0.5;exitY=0;exitDx=0;exitDy=0;entryX=0;entryY=0.5;entryDx=0;entryDy=0;" parent="1" source="5B_4mtcaILTxM5lqjwQF-39" target="iutqLcoYuN1xurHz5qFX-12" edge="1">
          <mxGeometry relative="1" as="geometry">
            <mxPoint x="2300" y="680" as="sourcePoint" />
            <mxPoint x="2460" y="680" as="targetPoint" />
          </mxGeometry>
        </mxCell>
        <mxCell id="5B_4mtcaILTxM5lqjwQF-128" value="" style="endArrow=none;html=1;rounded=0;exitX=0.5;exitY=0;exitDx=0;exitDy=0;entryX=0;entryY=1;entryDx=0;entryDy=0;" parent="1" source="5B_4mtcaILTxM5lqjwQF-17" target="iutqLcoYuN1xurHz5qFX-12" edge="1">
          <mxGeometry relative="1" as="geometry">
            <mxPoint x="2370" y="660" as="sourcePoint" />
            <mxPoint x="2530" y="660" as="targetPoint" />
          </mxGeometry>
        </mxCell>
        <mxCell id="5B_4mtcaILTxM5lqjwQF-129" value="" style="endArrow=none;html=1;rounded=0;entryX=1;entryY=0.5;entryDx=0;entryDy=0;exitX=0.5;exitY=0;exitDx=0;exitDy=0;" parent="1" source="4luKBot8r3mopgkSVabK-43" target="iutqLcoYuN1xurHz5qFX-12" edge="1">
          <mxGeometry relative="1" as="geometry">
            <mxPoint x="2989.999999999998" y="480" as="sourcePoint" />
            <mxPoint x="2910" y="440" as="targetPoint" />
          </mxGeometry>
        </mxCell>
        <mxCell id="5B_4mtcaILTxM5lqjwQF-130" value="" style="endArrow=none;html=1;rounded=0;entryX=0.8;entryY=0.884;entryDx=0;entryDy=0;entryPerimeter=0;" parent="1" source="4luKBot8r3mopgkSVabK-72" target="iutqLcoYuN1xurHz5qFX-12" edge="1">
          <mxGeometry relative="1" as="geometry">
            <mxPoint x="2779.3124536144587" y="520.7390271014322" as="sourcePoint" />
            <mxPoint x="2900" y="470" as="targetPoint" />
          </mxGeometry>
        </mxCell>
        <mxCell id="5B_4mtcaILTxM5lqjwQF-131" value="" style="endArrow=none;html=1;rounded=0;exitX=0.5;exitY=0;exitDx=0;exitDy=0;" parent="1" source="5B_4mtcaILTxM5lqjwQF-70" target="4luKBot8r3mopgkSVabK-72" edge="1">
          <mxGeometry relative="1" as="geometry">
            <mxPoint x="2570" y="770" as="sourcePoint" />
            <mxPoint x="2795" y="570" as="targetPoint" />
          </mxGeometry>
        </mxCell>
        <mxCell id="5B_4mtcaILTxM5lqjwQF-133" value="" style="endArrow=none;html=1;rounded=0;exitX=0.5;exitY=0;exitDx=0;exitDy=0;entryX=0;entryY=0.5;entryDx=0;entryDy=0;" parent="1" source="5B_4mtcaILTxM5lqjwQF-44" target="iutqLcoYuN1xurHz5qFX-15" edge="1">
          <mxGeometry relative="1" as="geometry">
            <mxPoint x="3820" y="750" as="sourcePoint" />
            <mxPoint x="3980" y="750" as="targetPoint" />
          </mxGeometry>
        </mxCell>
        <mxCell id="5B_4mtcaILTxM5lqjwQF-134" value="" style="endArrow=none;html=1;rounded=0;exitX=0.5;exitY=0;exitDx=0;exitDy=0;entryX=0.5;entryY=1;entryDx=0;entryDy=0;" parent="1" source="5B_4mtcaILTxM5lqjwQF-157" target="5B_4mtcaILTxM5lqjwQF-20" edge="1">
          <mxGeometry relative="1" as="geometry">
            <mxPoint x="3830" y="820" as="sourcePoint" />
            <mxPoint x="3990" y="820" as="targetPoint" />
          </mxGeometry>
        </mxCell>
        <mxCell id="5B_4mtcaILTxM5lqjwQF-135" value="" style="endArrow=none;html=1;rounded=0;" parent="1" source="5B_4mtcaILTxM5lqjwQF-20" target="iutqLcoYuN1xurHz5qFX-15" edge="1">
          <mxGeometry relative="1" as="geometry">
            <mxPoint x="3840" y="770" as="sourcePoint" />
            <mxPoint x="4000" y="770" as="targetPoint" />
          </mxGeometry>
        </mxCell>
        <mxCell id="5B_4mtcaILTxM5lqjwQF-142" value="" style="endArrow=none;html=1;rounded=0;" parent="1" source="5B_4mtcaILTxM5lqjwQF-22" target="iutqLcoYuN1xurHz5qFX-11" edge="1">
          <mxGeometry relative="1" as="geometry">
            <mxPoint x="3450" y="830" as="sourcePoint" />
            <mxPoint x="3610" y="830" as="targetPoint" />
          </mxGeometry>
        </mxCell>
        <mxCell id="5B_4mtcaILTxM5lqjwQF-144" value="" style="endArrow=none;html=1;rounded=0;" parent="1" source="5B_4mtcaILTxM5lqjwQF-15" target="iutqLcoYuN1xurHz5qFX-11" edge="1">
          <mxGeometry relative="1" as="geometry">
            <mxPoint x="3470" y="810" as="sourcePoint" />
            <mxPoint x="3630" y="810" as="targetPoint" />
          </mxGeometry>
        </mxCell>
        <mxCell id="5B_4mtcaILTxM5lqjwQF-147" value="" style="endArrow=none;html=1;rounded=0;exitX=0.5;exitY=0;exitDx=0;exitDy=0;entryX=0.5;entryY=1;entryDx=0;entryDy=0;" parent="1" source="5B_4mtcaILTxM5lqjwQF-61" target="5B_4mtcaILTxM5lqjwQF-15" edge="1">
          <mxGeometry relative="1" as="geometry">
            <mxPoint x="3290" y="750" as="sourcePoint" />
            <mxPoint x="3450" y="750" as="targetPoint" />
          </mxGeometry>
        </mxCell>
        <mxCell id="5B_4mtcaILTxM5lqjwQF-148" value="" style="endArrow=none;html=1;rounded=0;exitX=0.5;exitY=0;exitDx=0;exitDy=0;entryX=0.5;entryY=1;entryDx=0;entryDy=0;" parent="1" source="5B_4mtcaILTxM5lqjwQF-59" target="5B_4mtcaILTxM5lqjwQF-22" edge="1">
          <mxGeometry relative="1" as="geometry">
            <mxPoint x="3450" y="710" as="sourcePoint" />
            <mxPoint x="3610" y="710" as="targetPoint" />
          </mxGeometry>
        </mxCell>
        <mxCell id="5B_4mtcaILTxM5lqjwQF-157" value="" style="rounded=0;whiteSpace=wrap;html=1;" parent="1" vertex="1">
          <mxGeometry x="3890" y="600" width="30" height="70" as="geometry" />
        </mxCell>
        <mxCell id="5B_4mtcaILTxM5lqjwQF-187" value="" style="endArrow=none;html=1;rounded=0;entryX=0.5;entryY=0;entryDx=0;entryDy=0;" parent="1" source="iutqLcoYuN1xurHz5qFX-10" target="iutqLcoYuN1xurHz5qFX-12" edge="1">
          <mxGeometry relative="1" as="geometry">
            <mxPoint x="2810" y="160" as="sourcePoint" />
            <mxPoint x="2730" y="280" as="targetPoint" />
          </mxGeometry>
        </mxCell>
        <mxCell id="5B_4mtcaILTxM5lqjwQF-188" value="" style="endArrow=none;html=1;rounded=0;entryX=0.5;entryY=0;entryDx=0;entryDy=0;" parent="1" source="iutqLcoYuN1xurHz5qFX-10" target="iutqLcoYuN1xurHz5qFX-17" edge="1">
          <mxGeometry relative="1" as="geometry">
            <mxPoint x="2210" y="190" as="sourcePoint" />
            <mxPoint x="2130" y="310" as="targetPoint" />
          </mxGeometry>
        </mxCell>
        <mxCell id="5B_4mtcaILTxM5lqjwQF-189" value="" style="endArrow=none;html=1;rounded=0;entryX=0.5;entryY=0;entryDx=0;entryDy=0;" parent="1" source="iutqLcoYuN1xurHz5qFX-10" target="iutqLcoYuN1xurHz5qFX-13" edge="1">
          <mxGeometry relative="1" as="geometry">
            <mxPoint x="2940" y="40" as="sourcePoint" />
            <mxPoint x="890" y="270" as="targetPoint" />
          </mxGeometry>
        </mxCell>
        <mxCell id="5B_4mtcaILTxM5lqjwQF-191" value="" style="endArrow=none;html=1;rounded=0;entryX=0.5;entryY=0;entryDx=0;entryDy=0;" parent="1" source="iutqLcoYuN1xurHz5qFX-10" target="iutqLcoYuN1xurHz5qFX-11" edge="1">
          <mxGeometry relative="1" as="geometry">
            <mxPoint x="3280" y="50" as="sourcePoint" />
            <mxPoint x="3200" y="170" as="targetPoint" />
          </mxGeometry>
        </mxCell>
        <mxCell id="5B_4mtcaILTxM5lqjwQF-192" value="" style="endArrow=none;html=1;rounded=0;entryX=0.5;entryY=0;entryDx=0;entryDy=0;" parent="1" source="iutqLcoYuN1xurHz5qFX-10" target="iutqLcoYuN1xurHz5qFX-16" edge="1">
          <mxGeometry relative="1" as="geometry">
            <mxPoint x="2940" y="40" as="sourcePoint" />
            <mxPoint x="1730" y="280" as="targetPoint" />
          </mxGeometry>
        </mxCell>
        <mxCell id="5B_4mtcaILTxM5lqjwQF-194" value="" style="endArrow=none;html=1;rounded=0;entryX=0.5;entryY=0;entryDx=0;entryDy=0;" parent="1" source="iutqLcoYuN1xurHz5qFX-10" target="iutqLcoYuN1xurHz5qFX-15" edge="1">
          <mxGeometry relative="1" as="geometry">
            <mxPoint x="4060" y="50" as="sourcePoint" />
            <mxPoint x="3980" y="170" as="targetPoint" />
          </mxGeometry>
        </mxCell>
        <mxCell id="4luKBot8r3mopgkSVabK-3" value="település" style="ellipse;whiteSpace=wrap;html=1;fillColor=#f5f5f5;gradientColor=#b3b3b3;strokeColor=#666666;" vertex="1" parent="1">
          <mxGeometry x="420" y="570" width="110" height="40" as="geometry" />
        </mxCell>
        <mxCell id="4luKBot8r3mopgkSVabK-4" value="házszám" style="ellipse;whiteSpace=wrap;html=1;fillColor=#f5f5f5;gradientColor=#b3b3b3;strokeColor=#666666;" vertex="1" parent="1">
          <mxGeometry x="180" y="570" width="110" height="40" as="geometry" />
        </mxCell>
        <mxCell id="4luKBot8r3mopgkSVabK-5" value="utca" style="ellipse;whiteSpace=wrap;html=1;fillColor=#f5f5f5;gradientColor=#b3b3b3;strokeColor=#666666;" vertex="1" parent="1">
          <mxGeometry x="300" y="570" width="110" height="40" as="geometry" />
        </mxCell>
        <mxCell id="4luKBot8r3mopgkSVabK-6" value="lakcím" style="ellipse;whiteSpace=wrap;html=1;fillColor=#f5f5f5;gradientColor=#b3b3b3;strokeColor=#666666;" vertex="1" parent="1">
          <mxGeometry x="290" y="510" width="130" height="50" as="geometry" />
        </mxCell>
        <mxCell id="4luKBot8r3mopgkSVabK-7" value="" style="endArrow=none;html=1;rounded=0;exitX=0.5;exitY=0;exitDx=0;exitDy=0;entryX=0.5;entryY=1;entryDx=0;entryDy=0;" edge="1" parent="1" source="4luKBot8r3mopgkSVabK-5" target="4luKBot8r3mopgkSVabK-6">
          <mxGeometry relative="1" as="geometry">
            <mxPoint x="320" y="720" as="sourcePoint" />
            <mxPoint x="480" y="720" as="targetPoint" />
          </mxGeometry>
        </mxCell>
        <mxCell id="4luKBot8r3mopgkSVabK-8" value="" style="endArrow=none;html=1;rounded=0;exitX=0.5;exitY=0;exitDx=0;exitDy=0;entryX=0.993;entryY=0.57;entryDx=0;entryDy=0;entryPerimeter=0;" edge="1" parent="1" source="4luKBot8r3mopgkSVabK-3" target="4luKBot8r3mopgkSVabK-6">
          <mxGeometry relative="1" as="geometry">
            <mxPoint x="550" y="680" as="sourcePoint" />
            <mxPoint x="493" y="545" as="targetPoint" />
          </mxGeometry>
        </mxCell>
        <mxCell id="4luKBot8r3mopgkSVabK-9" value="" style="endArrow=none;html=1;rounded=0;exitX=0.5;exitY=0;exitDx=0;exitDy=0;entryX=0;entryY=0.5;entryDx=0;entryDy=0;" edge="1" parent="1" source="4luKBot8r3mopgkSVabK-4" target="4luKBot8r3mopgkSVabK-6">
          <mxGeometry relative="1" as="geometry">
            <mxPoint x="190" y="910" as="sourcePoint" />
            <mxPoint x="350" y="910" as="targetPoint" />
          </mxGeometry>
        </mxCell>
        <mxCell id="4luKBot8r3mopgkSVabK-10" value="" style="endArrow=none;html=1;rounded=0;exitX=0.5;exitY=0;exitDx=0;exitDy=0;" edge="1" parent="1" source="4luKBot8r3mopgkSVabK-6" target="iutqLcoYuN1xurHz5qFX-13">
          <mxGeometry relative="1" as="geometry">
            <mxPoint x="95" y="600" as="sourcePoint" />
            <mxPoint x="95" y="580" as="targetPoint" />
            <Array as="points" />
          </mxGeometry>
        </mxCell>
        <mxCell id="4luKBot8r3mopgkSVabK-11" value="" style="rounded=0;whiteSpace=wrap;html=1;" vertex="1" parent="1">
          <mxGeometry x="220" y="630" width="30" height="70" as="geometry" />
        </mxCell>
        <mxCell id="4luKBot8r3mopgkSVabK-12" value="" style="rounded=0;whiteSpace=wrap;html=1;" vertex="1" parent="1">
          <mxGeometry x="340" y="630" width="30" height="70" as="geometry" />
        </mxCell>
        <mxCell id="4luKBot8r3mopgkSVabK-13" value="" style="rounded=0;whiteSpace=wrap;html=1;" vertex="1" parent="1">
          <mxGeometry x="460" y="630" width="30" height="70" as="geometry" />
        </mxCell>
        <mxCell id="4luKBot8r3mopgkSVabK-14" value="" style="endArrow=none;html=1;rounded=0;entryX=0.5;entryY=0;entryDx=0;entryDy=0;" edge="1" parent="1" source="4luKBot8r3mopgkSVabK-4" target="4luKBot8r3mopgkSVabK-11">
          <mxGeometry relative="1" as="geometry">
            <mxPoint x="95" y="600" as="sourcePoint" />
            <mxPoint x="95" y="580" as="targetPoint" />
          </mxGeometry>
        </mxCell>
        <mxCell id="4luKBot8r3mopgkSVabK-15" value="" style="endArrow=none;html=1;rounded=0;" edge="1" parent="1" source="4luKBot8r3mopgkSVabK-12" target="4luKBot8r3mopgkSVabK-5">
          <mxGeometry relative="1" as="geometry">
            <mxPoint x="105" y="610" as="sourcePoint" />
            <mxPoint x="105" y="590" as="targetPoint" />
          </mxGeometry>
        </mxCell>
        <mxCell id="4luKBot8r3mopgkSVabK-16" value="" style="endArrow=none;html=1;rounded=0;" edge="1" parent="1" source="4luKBot8r3mopgkSVabK-13" target="4luKBot8r3mopgkSVabK-3">
          <mxGeometry relative="1" as="geometry">
            <mxPoint x="115" y="620" as="sourcePoint" />
            <mxPoint x="115" y="600" as="targetPoint" />
          </mxGeometry>
        </mxCell>
        <mxCell id="4luKBot8r3mopgkSVabK-18" value="végzettség" style="ellipse;shape=doubleEllipse;margin=3;whiteSpace=wrap;html=1;align=center;fillColor=#84878b;strokeColor=#314354;fontColor=#ffffff;fillStyle=auto;" vertex="1" parent="1">
          <mxGeometry x="1100" y="520" width="130" height="50" as="geometry" />
        </mxCell>
        <mxCell id="4luKBot8r3mopgkSVabK-21" value="" style="rounded=0;whiteSpace=wrap;html=1;" vertex="1" parent="1">
          <mxGeometry x="2100" y="600" width="30" height="70" as="geometry" />
        </mxCell>
        <mxCell id="4luKBot8r3mopgkSVabK-22" value="" style="endArrow=none;html=1;rounded=0;exitX=0.5;exitY=0;exitDx=0;exitDy=0;" edge="1" parent="1" source="4luKBot8r3mopgkSVabK-21" target="4luKBot8r3mopgkSVabK-23">
          <mxGeometry relative="1" as="geometry">
            <mxPoint x="2160" y="590" as="sourcePoint" />
            <mxPoint x="2195" y="550" as="targetPoint" />
          </mxGeometry>
        </mxCell>
        <mxCell id="4luKBot8r3mopgkSVabK-23" value="végzettség" style="ellipse;shape=doubleEllipse;margin=3;whiteSpace=wrap;html=1;align=center;fillColor=#84878b;strokeColor=#314354;fontColor=#ffffff;fillStyle=auto;" vertex="1" parent="1">
          <mxGeometry x="2050" y="520" width="130" height="50" as="geometry" />
        </mxCell>
        <mxCell id="4luKBot8r3mopgkSVabK-24" value="" style="endArrow=none;html=1;rounded=0;" edge="1" parent="1" source="4luKBot8r3mopgkSVabK-25" target="iutqLcoYuN1xurHz5qFX-16">
          <mxGeometry relative="1" as="geometry">
            <mxPoint x="770" y="510" as="sourcePoint" />
            <mxPoint x="1050" y="395" as="targetPoint" />
          </mxGeometry>
        </mxCell>
        <mxCell id="4luKBot8r3mopgkSVabK-25" value="&lt;u&gt;E-F&lt;/u&gt;" style="rhombus;whiteSpace=wrap;html=1;fillColor=#f5f5f5;strokeColor=#666666;gradientColor=#b3b3b3;" vertex="1" parent="1">
          <mxGeometry x="1290" y="470" width="80" height="80" as="geometry" />
        </mxCell>
        <mxCell id="4luKBot8r3mopgkSVabK-26" value="" style="endArrow=none;dashed=1;html=1;rounded=0;strokeColor=default;startArrow=classic;startFill=1;" edge="1" parent="1" source="5B_4mtcaILTxM5lqjwQF-28" target="4luKBot8r3mopgkSVabK-25">
          <mxGeometry width="50" height="50" relative="1" as="geometry">
            <mxPoint x="-70" y="590" as="sourcePoint" />
            <mxPoint x="1350" y="550" as="targetPoint" />
            <Array as="points">
              <mxPoint x="-80" y="800" />
              <mxPoint x="640" y="800" />
              <mxPoint x="1340" y="801" />
            </Array>
          </mxGeometry>
        </mxCell>
        <mxCell id="4luKBot8r3mopgkSVabK-27" value="&lt;u&gt;E-SZ&lt;/u&gt;" style="rhombus;whiteSpace=wrap;html=1;fillColor=#f5f5f5;strokeColor=#666666;gradientColor=#b3b3b3;" vertex="1" parent="1">
          <mxGeometry x="2210" y="490" width="80" height="80" as="geometry" />
        </mxCell>
        <mxCell id="4luKBot8r3mopgkSVabK-28" value="" style="endArrow=none;html=1;rounded=0;" edge="1" parent="1" source="iutqLcoYuN1xurHz5qFX-17" target="4luKBot8r3mopgkSVabK-27">
          <mxGeometry relative="1" as="geometry">
            <mxPoint x="1997" y="418" as="sourcePoint" />
            <mxPoint x="2115" y="530" as="targetPoint" />
          </mxGeometry>
        </mxCell>
        <mxCell id="4luKBot8r3mopgkSVabK-29" value="" style="endArrow=none;dashed=1;html=1;rounded=0;startArrow=classic;startFill=1;exitX=0.405;exitY=0.875;exitDx=0;exitDy=0;exitPerimeter=0;" edge="1" parent="1" source="5B_4mtcaILTxM5lqjwQF-28" target="4luKBot8r3mopgkSVabK-27">
          <mxGeometry width="50" height="50" relative="1" as="geometry">
            <mxPoint x="-133.52941176470588" y="810" as="sourcePoint" />
            <mxPoint x="1990" y="620" as="targetPoint" />
            <Array as="points">
              <mxPoint x="-90" y="810" />
              <mxPoint x="450" y="810" />
              <mxPoint x="1050" y="810" />
              <mxPoint x="2250" y="810" />
            </Array>
          </mxGeometry>
        </mxCell>
        <mxCell id="4luKBot8r3mopgkSVabK-31" value="idotartama" style="ellipse;whiteSpace=wrap;html=1;fillColor=#f5f5f5;gradientColor=#b3b3b3;strokeColor=#666666;" vertex="1" parent="1">
          <mxGeometry x="2660" y="600" width="110" height="40" as="geometry" />
        </mxCell>
        <mxCell id="4luKBot8r3mopgkSVabK-32" value="kezdete" style="ellipse;whiteSpace=wrap;html=1;fillColor=#f5f5f5;gradientColor=#b3b3b3;strokeColor=#666666;" vertex="1" parent="1">
          <mxGeometry x="2550" y="600" width="110" height="40" as="geometry" />
        </mxCell>
        <mxCell id="4luKBot8r3mopgkSVabK-34" value="" style="endArrow=none;html=1;rounded=0;" edge="1" parent="1" source="4luKBot8r3mopgkSVabK-32" target="4luKBot8r3mopgkSVabK-37">
          <mxGeometry relative="1" as="geometry">
            <mxPoint x="2490" y="760" as="sourcePoint" />
            <mxPoint x="2490" y="780" as="targetPoint" />
          </mxGeometry>
        </mxCell>
        <mxCell id="4luKBot8r3mopgkSVabK-35" value="" style="endArrow=none;html=1;rounded=0;" edge="1" parent="1" target="4luKBot8r3mopgkSVabK-32" source="4luKBot8r3mopgkSVabK-41">
          <mxGeometry relative="1" as="geometry">
            <mxPoint x="2639.0169141527786" y="569.2324204780414" as="sourcePoint" />
            <mxPoint x="2360" y="740" as="targetPoint" />
          </mxGeometry>
        </mxCell>
        <mxCell id="4luKBot8r3mopgkSVabK-36" value="" style="endArrow=none;html=1;rounded=0;" edge="1" parent="1" target="4luKBot8r3mopgkSVabK-31" source="4luKBot8r3mopgkSVabK-41">
          <mxGeometry relative="1" as="geometry">
            <mxPoint x="2673.8363506961778" y="568.9272562897415" as="sourcePoint" />
            <mxPoint x="2370" y="750" as="targetPoint" />
          </mxGeometry>
        </mxCell>
        <mxCell id="4luKBot8r3mopgkSVabK-37" value="" style="rounded=0;whiteSpace=wrap;html=1;" vertex="1" parent="1">
          <mxGeometry x="2590" y="660" width="30" height="70" as="geometry" />
        </mxCell>
        <mxCell id="4luKBot8r3mopgkSVabK-38" value="" style="rounded=0;whiteSpace=wrap;html=1;" vertex="1" parent="1">
          <mxGeometry x="2700" y="660" width="30" height="70" as="geometry" />
        </mxCell>
        <mxCell id="4luKBot8r3mopgkSVabK-39" value="" style="endArrow=none;html=1;rounded=0;" edge="1" parent="1" source="4luKBot8r3mopgkSVabK-38" target="4luKBot8r3mopgkSVabK-31">
          <mxGeometry relative="1" as="geometry">
            <mxPoint x="3235" y="610" as="sourcePoint" />
            <mxPoint x="3235" y="580" as="targetPoint" />
          </mxGeometry>
        </mxCell>
        <mxCell id="4luKBot8r3mopgkSVabK-41" value="gyakorlat" style="ellipse;whiteSpace=wrap;html=1;fillColor=#f5f5f5;gradientColor=#b3b3b3;strokeColor=#666666;" vertex="1" parent="1">
          <mxGeometry x="2590" y="520" width="130" height="50" as="geometry" />
        </mxCell>
        <mxCell id="4luKBot8r3mopgkSVabK-45" value="" style="edgeStyle=orthogonalEdgeStyle;rounded=0;orthogonalLoop=1;jettySize=auto;html=1;dashed=1;entryX=0.29;entryY=0.78;entryDx=0;entryDy=0;entryPerimeter=0;" edge="1" parent="1" source="4luKBot8r3mopgkSVabK-43" target="5B_4mtcaILTxM5lqjwQF-28">
          <mxGeometry relative="1" as="geometry">
            <mxPoint x="-106" y="590" as="targetPoint" />
            <Array as="points">
              <mxPoint x="2940" y="820" />
              <mxPoint x="-105" y="820" />
              <mxPoint x="-105" y="620" />
              <mxPoint x="-107" y="620" />
            </Array>
          </mxGeometry>
        </mxCell>
        <mxCell id="4luKBot8r3mopgkSVabK-43" value="&lt;u&gt;E-GY&lt;/u&gt;" style="rhombus;whiteSpace=wrap;html=1;fillColor=#f5f5f5;strokeColor=#666666;gradientColor=#b3b3b3;" vertex="1" parent="1">
          <mxGeometry x="2900" y="490" width="80" height="80" as="geometry" />
        </mxCell>
        <mxCell id="4luKBot8r3mopgkSVabK-51" value="" style="edgeStyle=orthogonalEdgeStyle;rounded=0;orthogonalLoop=1;jettySize=auto;html=1;dashed=1;entryX=0.125;entryY=0.677;entryDx=0;entryDy=0;entryPerimeter=0;" edge="1" parent="1" source="4luKBot8r3mopgkSVabK-46" target="5B_4mtcaILTxM5lqjwQF-28">
          <mxGeometry relative="1" as="geometry">
            <mxPoint x="3160" y="860" as="targetPoint" />
            <Array as="points">
              <mxPoint x="3160" y="830" />
              <mxPoint x="-120" y="830" />
            </Array>
          </mxGeometry>
        </mxCell>
        <mxCell id="4luKBot8r3mopgkSVabK-46" value="&lt;u&gt;E-R&lt;/u&gt;" style="rhombus;whiteSpace=wrap;html=1;fillColor=#f5f5f5;strokeColor=#666666;gradientColor=#b3b3b3;" vertex="1" parent="1">
          <mxGeometry x="3120" y="490" width="80" height="80" as="geometry" />
        </mxCell>
        <mxCell id="4luKBot8r3mopgkSVabK-69" value="" style="edgeStyle=orthogonalEdgeStyle;rounded=0;orthogonalLoop=1;jettySize=auto;html=1;dashed=1;" edge="1" parent="1" source="4luKBot8r3mopgkSVabK-47" target="5B_4mtcaILTxM5lqjwQF-44">
          <mxGeometry relative="1" as="geometry">
            <mxPoint x="3579.999999999998" y="660" as="targetPoint" />
            <Array as="points">
              <mxPoint x="3580" y="820" />
              <mxPoint x="3780" y="820" />
            </Array>
          </mxGeometry>
        </mxCell>
        <mxCell id="4luKBot8r3mopgkSVabK-47" value="&lt;u&gt;V-R&lt;/u&gt;" style="rhombus;whiteSpace=wrap;html=1;fillColor=#f5f5f5;strokeColor=#666666;gradientColor=#b3b3b3;" vertex="1" parent="1">
          <mxGeometry x="3540" y="490" width="80" height="80" as="geometry" />
        </mxCell>
        <mxCell id="4luKBot8r3mopgkSVabK-48" value="" style="endArrow=none;html=1;rounded=0;" edge="1" parent="1" source="4luKBot8r3mopgkSVabK-46" target="iutqLcoYuN1xurHz5qFX-11">
          <mxGeometry relative="1" as="geometry">
            <mxPoint x="2950" y="500" as="sourcePoint" />
            <mxPoint x="2740" y="395" as="targetPoint" />
          </mxGeometry>
        </mxCell>
        <mxCell id="4luKBot8r3mopgkSVabK-49" value="" style="endArrow=none;html=1;rounded=0;" edge="1" parent="1" source="4luKBot8r3mopgkSVabK-47" target="iutqLcoYuN1xurHz5qFX-11">
          <mxGeometry relative="1" as="geometry">
            <mxPoint x="2960" y="510" as="sourcePoint" />
            <mxPoint x="2750" y="405" as="targetPoint" />
          </mxGeometry>
        </mxCell>
        <mxCell id="4luKBot8r3mopgkSVabK-52" value="" style="rounded=0;whiteSpace=wrap;html=1;" vertex="1" parent="1">
          <mxGeometry x="4200" y="600" width="30" height="70" as="geometry" />
        </mxCell>
        <mxCell id="4luKBot8r3mopgkSVabK-53" value="idotartama" style="ellipse;whiteSpace=wrap;html=1;fillColor=#f5f5f5;gradientColor=#b3b3b3;strokeColor=#666666;" vertex="1" parent="1">
          <mxGeometry x="4060" y="600" width="110" height="40" as="geometry" />
        </mxCell>
        <mxCell id="4luKBot8r3mopgkSVabK-54" value="kezdete" style="ellipse;whiteSpace=wrap;html=1;fillColor=#f5f5f5;gradientColor=#b3b3b3;strokeColor=#666666;" vertex="1" parent="1">
          <mxGeometry x="3950" y="600" width="110" height="40" as="geometry" />
        </mxCell>
        <mxCell id="4luKBot8r3mopgkSVabK-55" value="" style="rounded=0;whiteSpace=wrap;html=1;" vertex="1" parent="1">
          <mxGeometry x="3990" y="660" width="30" height="70" as="geometry" />
        </mxCell>
        <mxCell id="4luKBot8r3mopgkSVabK-56" value="" style="rounded=0;whiteSpace=wrap;html=1;" vertex="1" parent="1">
          <mxGeometry x="4100" y="660" width="30" height="70" as="geometry" />
        </mxCell>
        <mxCell id="4luKBot8r3mopgkSVabK-58" value="cím" style="ellipse;whiteSpace=wrap;html=1;fillColor=#f5f5f5;gradientColor=#b3b3b3;strokeColor=#666666;" vertex="1" parent="1">
          <mxGeometry x="3980" y="520" width="130" height="50" as="geometry" />
        </mxCell>
        <mxCell id="4luKBot8r3mopgkSVabK-60" value="életkor" style="ellipse;whiteSpace=wrap;html=1;fillColor=#f5f5f5;gradientColor=#b3b3b3;strokeColor=#666666;" vertex="1" parent="1">
          <mxGeometry x="4150" y="520" width="130" height="50" as="geometry" />
        </mxCell>
        <mxCell id="4luKBot8r3mopgkSVabK-61" value="" style="endArrow=none;html=1;rounded=0;" edge="1" parent="1" source="4luKBot8r3mopgkSVabK-58" target="iutqLcoYuN1xurHz5qFX-15">
          <mxGeometry relative="1" as="geometry">
            <mxPoint x="3915" y="530" as="sourcePoint" />
            <mxPoint x="3965" y="416" as="targetPoint" />
          </mxGeometry>
        </mxCell>
        <mxCell id="4luKBot8r3mopgkSVabK-62" value="" style="endArrow=none;html=1;rounded=0;" edge="1" parent="1" source="4luKBot8r3mopgkSVabK-60" target="iutqLcoYuN1xurHz5qFX-15">
          <mxGeometry relative="1" as="geometry">
            <mxPoint x="3925" y="540" as="sourcePoint" />
            <mxPoint x="3975" y="426" as="targetPoint" />
          </mxGeometry>
        </mxCell>
        <mxCell id="4luKBot8r3mopgkSVabK-63" value="" style="endArrow=none;html=1;rounded=0;" edge="1" parent="1" source="4luKBot8r3mopgkSVabK-54" target="4luKBot8r3mopgkSVabK-58">
          <mxGeometry relative="1" as="geometry">
            <mxPoint x="3935" y="550" as="sourcePoint" />
            <mxPoint x="3985" y="436" as="targetPoint" />
          </mxGeometry>
        </mxCell>
        <mxCell id="4luKBot8r3mopgkSVabK-64" value="" style="endArrow=none;html=1;rounded=0;" edge="1" parent="1" source="4luKBot8r3mopgkSVabK-53" target="4luKBot8r3mopgkSVabK-58">
          <mxGeometry relative="1" as="geometry">
            <mxPoint x="3945" y="560" as="sourcePoint" />
            <mxPoint x="3995" y="446" as="targetPoint" />
          </mxGeometry>
        </mxCell>
        <mxCell id="4luKBot8r3mopgkSVabK-65" value="" style="endArrow=none;html=1;rounded=0;" edge="1" parent="1" source="4luKBot8r3mopgkSVabK-55" target="4luKBot8r3mopgkSVabK-54">
          <mxGeometry relative="1" as="geometry">
            <mxPoint x="3955" y="570" as="sourcePoint" />
            <mxPoint x="4005" y="456" as="targetPoint" />
          </mxGeometry>
        </mxCell>
        <mxCell id="4luKBot8r3mopgkSVabK-66" value="" style="endArrow=none;html=1;rounded=0;" edge="1" parent="1" source="4luKBot8r3mopgkSVabK-56" target="4luKBot8r3mopgkSVabK-53">
          <mxGeometry relative="1" as="geometry">
            <mxPoint x="3965" y="580" as="sourcePoint" />
            <mxPoint x="4015" y="466" as="targetPoint" />
          </mxGeometry>
        </mxCell>
        <mxCell id="4luKBot8r3mopgkSVabK-67" value="" style="endArrow=none;html=1;rounded=0;" edge="1" parent="1" source="4luKBot8r3mopgkSVabK-52" target="4luKBot8r3mopgkSVabK-60">
          <mxGeometry relative="1" as="geometry">
            <mxPoint x="3975" y="590" as="sourcePoint" />
            <mxPoint x="4025" y="476" as="targetPoint" />
          </mxGeometry>
        </mxCell>
        <mxCell id="4luKBot8r3mopgkSVabK-72" value="műszak" style="ellipse;shape=doubleEllipse;margin=3;whiteSpace=wrap;html=1;align=center;fillColor=#84878b;strokeColor=#314354;fontColor=#ffffff;fillStyle=auto;" vertex="1" parent="1">
          <mxGeometry x="2730" y="520" width="130" height="50" as="geometry" />
        </mxCell>
      </root>
    </mxGraphModel>
  </diagram>
</mxfile>
